<?xml version="1.0" encoding="UTF-8"?>
<svg version="1.1" xmlns="http://www.w3.org/2000/svg" width="800" height="800">
<path d="M0 0 C2.27998502 1.70043576 4.52206397 3.42425079 6.734375 5.2109375 C10.28553841 7.90982169 13.43484421 9.03581898 17.796875 10.0859375 C22.30149959 11.88778733 24.34368926 13.76188756 27.28125 17.5546875 C29.747805 20.04667091 32.76656509 21.21514558 35.91796875 22.67578125 C43.18094115 26.2333566 49.97059005 30.79707276 56.609375 35.3984375 C59.27476053 37.21089966 61.67706194 38.5124535 64.734375 39.5234375 C68.19115233 40.67341491 70.74021144 42.36470864 73.671875 44.5234375 C76.9730743 46.94128836 79.95063286 48.69333259 83.796875 50.0859375 C88.53542765 51.81847081 92.21748811 54.30504552 96.2734375 57.2734375 C103.9658179 62.88286077 103.9658179 62.88286077 112.796875 66.0859375 C112.796875 66.7459375 112.796875 67.4059375 112.796875 68.0859375 C113.36817139 68.19768311 113.93946777 68.30942871 114.52807617 68.42456055 C117.06849681 69.1651179 118.87696634 70.2329823 121.09765625 71.66796875 C121.91041016 72.18810547 122.72316406 72.70824219 123.56054688 73.24414062 C124.40166016 73.79005859 125.24277344 74.33597656 126.109375 74.8984375 C132.76879424 79.2143461 132.76879424 79.2143461 139.58984375 83.265625 C149.67909737 88.99229027 157.39843446 96.42866199 165.4140625 104.6953125 C167.37259722 106.70658223 169.23668631 108.43016574 171.45703125 110.16796875 C174.29147391 112.49135998 176.21027647 115.05955031 178.359375 118.0234375 C181.56014198 122.41481994 181.56014198 122.41481994 184.9296875 126.67578125 C186.70886466 128.9723342 187.90007034 131.08124956 189.109375 133.7109375 C190.94756764 137.55236176 193.02902616 141.00217152 195.421875 144.5234375 C198.34671008 149.0056523 199.95813003 153.06941594 201.09375 158.28515625 C201.67173066 160.58744589 202.35760936 162.63936453 203.2109375 164.84375 C204.9028418 169.25130584 206.20233248 173.71520914 207.421875 178.2734375 C207.6384375 179.03462891 207.855 179.79582031 208.078125 180.58007812 C211.17989296 192.15426784 210.95843575 204.12291187 210.921875 216.0234375 C210.92574219 217.27833984 210.92960937 218.53324219 210.93359375 219.82617188 C210.92103339 232.00344408 210.80516831 243.70500047 206.921875 255.3359375 C206.66535156 256.14289063 206.40882813 256.94984375 206.14453125 257.78125 C205.62873639 259.40380066 205.10641043 261.02429042 204.57739258 262.64257812 C203.77697835 265.14822268 203.0450246 267.66795529 202.31640625 270.1953125 C196.79634255 288.65055796 185.5515953 305.14555635 172.953125 319.5078125 C170.69126543 322.11229362 170.69126543 322.11229362 168.671875 325.31640625 C166.62006933 328.34709421 164.91964095 329.29034708 161.796875 331.0859375 C161.19875 331.8490625 160.600625 332.6121875 159.984375 333.3984375 C157.0440147 337.01088015 153.5810548 339.40869465 149.796875 342.0859375 C148.91515625 342.7253125 148.0334375 343.3646875 147.125 344.0234375 C140.06199597 349.0859375 140.06199597 349.0859375 137.796875 349.0859375 C137.5803125 349.68921875 137.36375 350.2925 137.140625 350.9140625 C135.32705289 353.84530114 133.44016602 354.49590291 130.296875 355.8359375 C129.3171875 356.26390625 128.3375 356.691875 127.328125 357.1328125 C124.796875 358.0859375 124.796875 358.0859375 122.796875 358.0859375 C122.796875 358.7459375 122.796875 359.4059375 122.796875 360.0859375 C122.0646875 360.42882812 121.3325 360.77171875 120.578125 361.125 C111.30744918 365.60582665 102.45131226 370.69372137 93.58984375 375.93408203 C88.76296586 378.78611097 83.92436712 381.58270925 78.98828125 384.2421875 C74.81895943 386.49564309 70.86510828 388.89622217 66.921875 391.5234375 C61.40916994 395.14570186 55.75593561 398.31971371 49.9140625 401.390625 C44.30333885 404.4420712 38.76012493 407.77871664 33.71484375 411.70703125 C31.34095786 413.41371499 28.80633265 414.17319324 26.0703125 415.14453125 C21.044851 417.22552132 16.47747424 420.32149243 11.9453125 423.3046875 C7.34876139 426.30155782 2.55562478 428.84481564 -2.328125 431.3359375 C-3.00955566 431.68962402 -3.69098633 432.04331055 -4.39306641 432.40771484 C-14.26302831 437.36071983 -27.32212582 437.7339869 -38 434.921875 C-50.07621034 430.33976682 -50.07621034 430.33976682 -52.203125 426.0859375 C-52.821875 425.8178125 -53.440625 425.5496875 -54.078125 425.2734375 C-56.93175404 423.67876245 -57.64164706 421.95905692 -59.203125 419.0859375 C-60.46873102 417.16737551 -61.73816481 415.25182838 -63.01953125 413.34375 C-66.19638828 407.28360688 -66.51707417 401.38296778 -66.453125 394.7109375 C-66.46472656 393.51210938 -66.46472656 393.51210938 -66.4765625 392.2890625 C-66.45296744 384.99818809 -66.07422221 377.45669936 -61.140625 371.7109375 C-59.15068224 369.34636004 -58.20115497 368.0800274 -57.203125 365.0859375 C-55.24354028 364.00889167 -53.2337289 363.02223221 -51.203125 362.0859375 C-48.92093899 360.83113652 -46.6510298 359.56599028 -44.390625 358.2734375 C-43.77243896 357.92087891 -43.15425293 357.56832031 -42.51733398 357.20507812 C-39.17551706 355.28075037 -35.93592263 353.28585886 -32.765625 351.0859375 C-28.35488754 348.06072909 -23.67094316 345.60886299 -18.9440918 343.12597656 C-8.41997 337.76635738 -8.41997 337.76635738 1.24609375 331.07421875 C4.03879658 328.89736463 6.77821268 327.5211788 9.984375 326.0234375 C16.72927242 322.78595969 23.02778813 318.96606283 29.37231445 315.01147461 C34.08372771 312.08916698 38.80544289 309.40100313 43.8515625 307.0859375 C46.03592897 305.96305032 47.84486469 304.57208341 49.796875 303.0859375 C51.05310668 302.35201963 52.32521336 301.64481056 53.609375 300.9609375 C57.8575895 298.64817599 61.98102712 296.16563369 66.109375 293.6484375 C70.72838267 290.8371441 75.35570577 288.24513916 80.234375 285.8984375 C84.56824933 283.79839907 88.29253623 281.45817004 92.0546875 278.4609375 C93.6499824 277.20187067 95.34590746 276.07310859 97.046875 274.9609375 C99.83062319 273.18773532 99.83062319 273.18773532 101.984375 270.8984375 C103.796875 269.0859375 103.796875 269.0859375 106.796875 268.0859375 C107.085625 267.3640625 107.374375 266.6421875 107.671875 265.8984375 C108.82939272 263.00464321 110.37397158 261.1857937 112.37890625 258.83984375 C124.6859535 243.61707732 127.70594167 225.12014386 125.796875 206.0859375 C124.5922498 197.82217384 121.84801997 190.29700149 117.75 183.0390625 C116.796875 181.0859375 116.796875 181.0859375 116.796875 178.0859375 C116.136875 178.0859375 115.476875 178.0859375 114.796875 178.0859375 C114.28125 177.0959375 113.765625 176.1059375 113.234375 175.0859375 C110.52866497 170.33397364 106.7843784 164.5796892 101.796875 162.0859375 C101.796875 161.4259375 101.796875 160.7659375 101.796875 160.0859375 C99.59167777 158.9425019 97.44142835 157.95367828 95.109375 157.0859375 C92.796875 156.0859375 92.796875 156.0859375 91.796875 154.0859375 C89.93546105 153.13830858 88.07039468 152.19716458 86.1875 151.29296875 C81.01628415 148.68201173 76.1230323 145.53715044 71.2109375 142.47265625 C68.71514538 140.92999496 68.71514538 140.92999496 65.359375 139.9609375 C60.57399116 138.25507834 56.55612358 135.42490101 52.36035156 132.62866211 C48.2266838 129.90998062 44.075457 127.6559794 39.609375 125.5234375 C34.06220516 122.85189082 29.39095886 119.7154076 24.5078125 115.9921875 C20.80176283 113.38620445 16.85904875 111.52910366 12.77734375 109.5859375 C8.78364825 107.57600424 5.10793405 105.17491905 1.3671875 102.734375 C-1.58920069 100.83833273 -4.61520123 99.13811339 -7.69921875 97.4609375 C-10.84921133 95.73114439 -13.9627164 93.93943129 -17.078125 92.1484375 C-21.25274838 89.74862734 -25.44997218 87.40674873 -29.703125 85.1484375 C-36.44445797 81.49397782 -42.81585288 77.31837416 -49.203125 73.0859375 C-49.99074219 72.60640625 -50.77835937 72.126875 -51.58984375 71.6328125 C-58.08810581 67.39426043 -63.4270824 59.64363689 -65.79052734 52.24780273 C-66.69627957 47.50198264 -66.38787222 42.5880452 -66.390625 37.7734375 C-66.40287109 36.65775391 -66.41511719 35.54207031 -66.42773438 34.39257812 C-66.44678302 23.68088954 -64.65491311 16.16589287 -57.203125 8.0859375 C-41.80808739 -4.40179896 -18.17806641 -10.8625031 0 0 Z " fill="#040405" transform="translate(443.203125,241.9140625)"/>
<path d="M0 0 C2.47613167 1.73143042 5.03850458 2.96631632 7.765625 4.265625 C12.40945589 6.51396898 16.66680324 9.04381982 20.953125 11.890625 C25.62811552 14.99216432 30.33565773 17.70588992 35.390625 20.140625 C40.22315379 22.47598769 44.62393084 25.00057229 49.0234375 28.0625 C51.74711888 29.90590413 54.58968601 31.46029954 57.4765625 33.03125 C60.80002222 34.84767543 64.0971771 36.70796121 67.390625 38.578125 C67.98963623 38.91505371 68.58864746 39.25198242 69.20581055 39.59912109 C71.59754322 40.95900061 73.89189421 42.30693199 76.05859375 44.0078125 C78.30170928 45.61313696 80.63563647 46.54969819 83.17773438 47.59130859 C86.59765358 49.14222262 89.68208184 51.22855248 92.828125 53.265625 C98.31632913 56.76076445 103.84227916 60.04861588 109.58984375 63.10546875 C112.86460693 64.8790846 116.02773819 66.8158092 119.20703125 68.75390625 C122.13396164 70.48617118 125.09764124 72.13431447 128.07568359 73.77636719 C141.26958353 81.07434718 153.46307555 89.25057848 158.6953125 104.21875 C160.48835575 114.68426773 160.22966276 128.27279239 154.8359375 137.6015625 C153.64831023 139.26705164 152.36803957 140.86553783 151.078125 142.453125 C150.83578125 143.07960938 150.5934375 143.70609375 150.34375 144.3515625 C148.42429117 147.53881203 145.47736828 149.15091796 142.390625 151.078125 C141.79056641 151.47257813 141.19050781 151.86703125 140.57226562 152.2734375 C132.69268945 157.28386618 125.29318996 157.79371759 116.140625 157.765625 C115.09455078 157.78173828 114.04847656 157.79785156 112.97070312 157.81445312 C103.2335758 157.82057326 97.05722064 155.6131834 89.453125 149.703125 C84.73077691 146.16876472 80.03611838 143.22522396 74.703125 140.703125 C70.92127622 138.90622448 67.51212297 137.22449083 64.265625 134.578125 C59.75090046 130.92937133 54.62022885 128.49063618 49.48681641 125.83813477 C44.50053166 123.24737098 39.78486271 120.42760389 35.08984375 117.3359375 C30.36593667 114.3827297 25.46148742 111.7627559 20.57519531 109.08984375 C15.83798435 106.48146838 11.32279277 103.70962512 6.8828125 100.6171875 C4.12306639 98.83709153 1.10153198 97.71745883 -1.921875 96.453125 C-3.16455026 95.70426392 -4.39301352 94.93151024 -5.609375 94.140625 C-8.84014589 92.04683695 -12.13222486 90.35477131 -15.609375 88.703125 C-20.11811823 86.50236172 -24.10365611 84.01208212 -28.171875 81.078125 C-46.0586363 68.35100638 -65.05223075 62.01535975 -87.171875 64.953125 C-101.42886882 68.01731472 -114.12219876 74.81055693 -124.921875 84.453125 C-126.08976562 85.49146484 -126.08976562 85.49146484 -127.28125 86.55078125 C-134.22801071 93.11886516 -138.71409443 100.5821761 -142.671875 109.203125 C-142.96586182 109.821875 -143.25984863 110.440625 -143.56274414 111.078125 C-148.5775608 122.50406906 -148.21467648 135.22703964 -148.19311523 147.4675293 C-148.1975127 149.13793184 -148.20281852 150.80833219 -148.20895386 152.47872925 C-148.22037211 156.04932173 -148.22590718 159.61985551 -148.22683525 163.19046593 C-148.22879076 168.84413832 -148.2469223 174.49769062 -148.26759338 180.15132141 C-148.31656986 194.18588963 -148.34766787 208.22049 -148.36889648 222.25512695 C-148.38544424 233.18224916 -148.40830307 244.10926683 -148.45191723 255.03631908 C-148.47361434 260.64927952 -148.48175906 266.26204095 -148.47952449 271.87504041 C-148.48119764 275.37182386 -148.4952842 278.86847839 -148.51273727 282.3652153 C-148.51830944 283.97841131 -148.51884738 285.59163434 -148.51379967 287.20483208 C-148.47393541 301.44396234 -150.65575961 314.74760565 -160.609375 325.765625 C-169.69046707 334.01030069 -180.49304394 336.80780616 -192.421875 336.765625 C-193.33324219 336.78173828 -194.24460937 336.79785156 -195.18359375 336.81445312 C-205.61893156 336.82198223 -212.42593045 332.19849144 -220.921875 326.453125 C-221.53675781 326.05222656 -222.15164063 325.65132813 -222.78515625 325.23828125 C-227.57123261 321.76311986 -229.75379419 316.78329045 -231.921875 311.453125 C-232.43181 310.25291214 -232.941745 309.05269928 -233.46713257 307.81611633 C-235.80673865 300.67728919 -235.3740397 293.18190464 -235.37353516 285.75463867 C-235.38416469 284.06789383 -235.3959978 282.38115621 -235.40893555 280.69442749 C-235.43962234 276.12448578 -235.45085102 271.55470079 -235.45657778 266.98466659 C-235.46095232 264.11136054 -235.46934331 261.23809399 -235.47907639 258.36480141 C-235.5128303 248.28623033 -235.52995399 238.2077759 -235.53271484 228.12915039 C-235.53572466 218.83005074 -235.57585259 209.53162772 -235.63386309 200.23272341 C-235.68223694 192.18616124 -235.70244754 184.13981693 -235.70250547 176.09311086 C-235.70303504 171.31646954 -235.71378996 166.54048668 -235.75368118 161.76399803 C-235.90165813 142.79502058 -235.40075292 124.43444663 -231.74755859 105.77075195 C-231.6071651 105.04367173 -231.46677161 104.3165915 -231.32212377 103.56747854 C-229.29168497 93.3382811 -226.08888492 84.01441712 -221.921875 74.453125 C-221.57969625 73.66753362 -221.23751751 72.88194223 -220.88496971 72.07254505 C-220.12732927 70.37702953 -219.3394365 68.69510057 -218.546875 67.015625 C-218.04414063 65.94441406 -217.54140625 64.87320313 -217.0234375 63.76953125 C-216.65992188 63.00511719 -216.29640625 62.24070312 -215.921875 61.453125 C-215.261875 61.453125 -214.601875 61.453125 -213.921875 61.453125 C-213.81875 60.72351563 -213.715625 59.99390625 -213.609375 59.2421875 C-212.37513023 54.23508087 -208.99582653 50.51097389 -205.921875 46.453125 C-205.2825 45.60621094 -204.643125 44.75929687 -203.984375 43.88671875 C-194.44879766 31.76858922 -183.2232252 20.74537569 -170.921875 11.453125 C-170.10460937 10.83050781 -169.28734375 10.20789063 -168.4453125 9.56640625 C-163.21341024 5.73798253 -157.81316018 2.71408885 -151.96875 -0.08203125 C-150.00069302 -1.02821249 -148.05051934 -2.01297726 -146.125 -3.04296875 C-138.02918513 -7.34806367 -129.65954486 -10.21851625 -120.92822266 -12.92138672 C-119.2878017 -13.43279564 -117.65613297 -13.97220532 -116.02734375 -14.51953125 C-83.07863119 -24.84519078 -28.42135441 -21.26006826 0 0 Z " fill="#030303" transform="translate(494.921875,142.546875)"/>
<path d="M0 0 C3.39537787 2.30452243 4.79220944 4.72176595 6.3125 8.5625 C6.786875 9.34625 7.26125 10.13 7.75 10.9375 C8.5234375 12.236875 8.5234375 12.236875 9.3125 13.5625 C9.99379471 14.67070602 10.67508942 15.77891205 11.37702942 16.92070007 C14.16775526 22.58550304 13.87681255 28.25503094 13.8425293 34.45629883 C13.85126068 35.73438919 13.85999207 37.01247955 13.86898804 38.32929993 C13.89253383 41.82757433 13.89186754 45.32547449 13.88707328 48.82380891 C13.886474 52.53533396 13.90928395 56.24671695 13.92964172 59.95817566 C13.96506821 67.02884177 13.98105792 74.09940572 13.9894169 81.17015046 C14.00025142 89.81986897 14.03119162 98.46948344 14.06445312 107.11914062 C14.06877645 108.26593532 14.06877645 108.26593532 14.07318711 109.43589759 C14.09334824 114.77627976 14.11458785 120.11665689 14.13671875 125.45703125 C14.13982103 126.20579859 14.14292331 126.95456594 14.14611959 127.7260232 C14.19061455 138.33825482 14.24505639 148.95038908 14.3125 159.5625 C14.31989449 160.76799248 14.32728897 161.97348495 14.33490753 163.21550751 C14.37670769 169.53009701 14.4391415 175.84368501 14.54139137 182.1575985 C14.56795763 183.94162207 14.58818256 185.72575433 14.60126305 187.50992775 C14.67366932 199.36962867 14.67366932 199.36962867 18.37773132 210.55696106 C19.3912589 212.73147661 19.81089785 214.70046094 20.1875 217.0625 C21.43297558 223.37964189 25.0887138 228.71215048 29.00390625 233.73046875 C30.3125 235.5625 30.3125 235.5625 30.3125 237.5625 C30.90160156 237.830625 31.49070312 238.09875 32.09765625 238.375 C34.32175927 239.5674644 35.90272123 240.85600691 37.75 242.5625 C39.90169188 244.47051737 41.29405076 245.55520612 44 246.625 C47.14399667 247.89959325 48.44109571 249.7900492 50.3125 252.5625 C50.3125 253.2225 50.3125 253.8825 50.3125 254.5625 C50.97636719 254.74425781 51.64023437 254.92601562 52.32421875 255.11328125 C53.20722656 255.36464844 54.09023438 255.61601562 55 255.875 C55.87011719 256.11863281 56.74023438 256.36226563 57.63671875 256.61328125 C60.3125 257.5625 60.3125 257.5625 62.76171875 259.0625 C73.54023423 265.40086132 91.03235791 265.48268895 102.94140625 262.54296875 C108.63629847 260.91765938 113.56118259 259.18702276 118.3125 255.5625 C120.52224099 254.58008713 122.75417025 253.6468495 125 252.75 C129.93880793 250.70923297 134.29843265 248.43090461 138.64453125 245.32421875 C142.38545676 242.85400293 146.31330769 240.7649066 150.25 238.625 C156.13403826 235.41655871 161.67023039 232.05397049 167.08203125 228.0859375 C170.23092939 225.93520147 173.570392 224.32022567 177.00390625 222.67578125 C181.60985012 220.45464081 185.93971295 217.80769253 190.25 215.0625 C192.93613291 213.36024136 195.63272923 211.87434971 198.5 210.5 C200.89297373 209.34285603 202.6023973 208.32600483 204.6875 206.625 C209.09258865 203.16385892 214.60684166 199.5625 220.3125 199.5625 C220.3125 198.9025 220.3125 198.2425 220.3125 197.5625 C220.92996094 197.27117187 221.54742187 196.97984375 222.18359375 196.6796875 C226.59155006 194.54615614 230.77898493 192.34771792 234.8125 189.5625 C238.62900335 186.93112138 242.54306365 184.91169023 246.71875 182.9140625 C249.5223088 181.45317192 252.06834698 179.76868092 254.6875 178 C266.93378455 170.1774082 279.34418087 169.05148925 293.48828125 171 C301.18202558 172.78147481 309.88484888 176.66282065 315.15625 182.66015625 C316.3125 184.5625 316.3125 184.5625 316.3125 186.5625 C317.3025 186.8925 318.2925 187.2225 319.3125 187.5625 C320.41015625 190.36328125 320.41015625 190.36328125 321.375 193.875 C322.57116252 198.37164888 322.57116252 198.37164888 324.40625 202.6171875 C327.91145011 210.14128084 325.13447268 219.81754027 322.50463867 227.23974609 C317.5089685 240.31950484 308.56947604 248.26708818 296.3125 254.5625 C295.36375 255.160625 294.415 255.75875 293.4375 256.375 C291.3125 257.5625 291.3125 257.5625 288.3125 257.5625 C288.3125 258.2225 288.3125 258.8825 288.3125 259.5625 C287.69503906 259.84222656 287.07757813 260.12195313 286.44140625 260.41015625 C281.89088375 262.56420876 277.91182291 264.73786194 274.0625 268 C269.34127322 271.88115084 264.17719531 273.82442517 258.546875 276.08984375 C255.02089704 277.69527091 252.65612946 279.50918144 249.90234375 282.171875 C246.82497004 284.86363186 242.48298823 287.5625 238.3125 287.5625 C238.3125 288.2225 238.3125 288.8825 238.3125 289.5625 C237.11753906 290.14257812 237.11753906 290.14257812 235.8984375 290.734375 C226.46893808 295.19404673 226.46893808 295.19404673 218.3125 301.5625 C217.4875 301.81 216.6625 302.0575 215.8125 302.3125 C211.8551375 303.72584375 208.6638439 305.70690091 205.10546875 307.9140625 C201.21082011 310.21272226 197.16085619 312.13884434 193.07421875 314.0703125 C190.1759723 315.63626744 187.87909948 317.50456093 185.3125 319.5625 C179.71620248 322.94676986 173.8907698 325.79948833 168.00976562 328.65039062 C164.49606346 330.37882452 161.41504747 332.15173676 158.3125 334.5625 C157.136875 335.0575 155.96125 335.5525 154.75 336.0625 C151.4190592 337.25389138 151.4190592 337.25389138 149.83349609 339.10351562 C147.1828068 341.64613508 143.45161305 341.58580167 139.9375 342.0625 C134.40182586 342.88656309 128.993514 343.80627916 123.5625 345.1875 C91.44730757 352.75100401 48.35444904 349.39218963 19.44238281 332.77539062 C17.00180836 331.38557244 14.52999894 330.06129114 12.0546875 328.734375 C1.95753764 323.24261475 -6.58164962 317.76877685 -14.6875 309.5625 C-16.05150027 308.36238146 -17.42588223 307.17391329 -18.8125 306 C-27.59378752 298.30744935 -34.81910289 289.95205831 -41.6875 280.5625 C-42.24308594 279.81355469 -42.79867187 279.06460937 -43.37109375 278.29296875 C-52.32692629 265.59947167 -58.46075668 250.53221272 -62.75 235.6875 C-63.11448242 234.50414062 -63.11448242 234.50414062 -63.48632812 233.296875 C-69.62148975 212.14114527 -69.19179627 190.47194705 -69.25947404 168.66771746 C-69.27652033 164.00045924 -69.30854121 159.33329838 -69.33830261 154.66610718 C-69.38590698 146.84106983 -69.4220212 139.0160454 -69.45092773 131.19091797 C-69.48434405 122.1793108 -69.53544401 113.16793595 -69.59608442 104.15647376 C-69.65444009 95.43200726 -69.70093277 86.70751643 -69.74188805 77.98295212 C-69.75936837 74.2935101 -69.78077978 70.60412311 -69.80545998 66.91472244 C-69.83396579 62.56594562 -69.85194879 58.21724225 -69.86219406 53.86838531 C-69.86752177 52.28425135 -69.8762664 50.70012411 -69.88891029 49.11603165 C-70.01117266 33.24182696 -69.98218712 16.30198238 -58.3203125 4.08203125 C-40.49344061 -10.7181599 -20.08820919 -11.20863846 0 0 Z " fill="#030303" transform="translate(215.6875,246.4375)"/>
<path d="M0 0 C9.66540994 2.66353677 17.95407323 6.24266504 26.48046875 11.5078125 C28.85950104 12.91678977 31.25349566 14.12757977 33.75 15.3125 C37.96608837 17.36125544 41.84733291 19.79187011 45.75 22.375 C50.46692142 25.49380702 55.21752615 28.23372408 60.3125 30.6875 C65.14502879 33.02286269 69.54580584 35.54744729 73.9453125 38.609375 C76.66899388 40.45277913 79.51156101 42.00717454 82.3984375 43.578125 C85.72189722 45.39455043 89.0190521 47.25483621 92.3125 49.125 C93.21101685 49.63039307 93.21101685 49.63039307 94.12768555 50.14599609 C96.51941822 51.50587561 98.81376921 52.85380699 100.98046875 54.5546875 C103.22358428 56.16001196 105.55751147 57.09657319 108.09960938 58.13818359 C111.51952858 59.68909762 114.60395684 61.77542748 117.75 63.8125 C123.23820413 67.30763945 128.76415416 70.59549088 134.51171875 73.65234375 C137.78648193 75.4259596 140.94961319 77.3626842 144.12890625 79.30078125 C147.05583664 81.03304618 150.01951624 82.68118947 152.99755859 84.32324219 C166.19145853 91.62122218 178.38495055 99.79745348 183.6171875 114.765625 C185.41023075 125.23114273 185.15153776 138.81966739 179.7578125 148.1484375 C178.57018523 149.81392664 177.28991457 151.41241283 176 153 C175.75765625 153.62648438 175.5153125 154.25296875 175.265625 154.8984375 C173.34616617 158.08568703 170.39924328 159.69779296 167.3125 161.625 C166.71244141 162.01945313 166.11238281 162.41390625 165.49414062 162.8203125 C157.61456445 167.83074118 150.21506496 168.34059259 141.0625 168.3125 C140.01642578 168.32861328 138.97035156 168.34472656 137.89257812 168.36132812 C128.1554508 168.36744826 121.97909564 166.1600584 114.375 160.25 C109.65265191 156.71563972 104.95799338 153.77209896 99.625 151.25 C95.84315122 149.45309948 92.43399797 147.77136583 89.1875 145.125 C84.67277546 141.47624633 79.54210385 139.03751118 74.40869141 136.38500977 C69.42240666 133.79424598 64.70673771 130.97447889 60.01171875 127.8828125 C55.28781167 124.9296047 50.38336242 122.3096309 45.49707031 119.63671875 C40.76205278 117.02955111 36.24243816 114.26963855 31.81640625 111.16015625 C29.99779748 109.99859323 28.26802084 109.24979543 26.25 108.5 C22.16846932 106.61621661 20.63098495 104.58770674 18 101 C18.99 100.505 18.99 100.505 20 100 C21.72070313 100.70922852 21.72070313 100.70922852 23.78125 101.87890625 C24.92207031 102.51989258 24.92207031 102.51989258 26.0859375 103.17382812 C26.88257813 103.63208984 27.67921875 104.09035156 28.5 104.5625 C29.26570313 104.99369141 30.03140625 105.42488281 30.8203125 105.86914062 C35.75753976 108.66387546 40.62341863 111.56902771 45.48193359 114.49780273 C49.63961484 116.97814137 53.85184505 119.36109455 58.0625 121.75 C68.10332505 127.46754384 78.07344499 133.29757798 88.01074219 139.19287109 C96.98492971 144.51598815 106.00248749 149.76168856 115.0625 154.9375 C116.02623535 155.49348877 116.9899707 156.04947754 117.98291016 156.62231445 C126.3746513 161.3913794 133.12426621 164.56398358 142.875 164.4375 C143.66003906 164.43355225 144.44507813 164.42960449 145.25390625 164.42553711 C151.45454843 164.27244274 156.5396082 163.03490526 162 160 C162.66 159.67 163.32 159.34 164 159 C164.78375 158.21625 165.5675 157.4325 166.375 156.625 C168.50178849 154.49821151 170.55076195 152.72353789 173 151 C173.66 151.33 174.32 151.66 175 152 C174.79761719 151.41734375 174.59523438 150.8346875 174.38671875 150.234375 C173.91078213 147.48451894 174.42395249 146.62475969 175.8125 144.25 C180.59218225 135.30256715 181.14532149 126.08363093 178.7734375 116.26953125 C177.63875812 112.93999227 175.95652089 110.03302661 174.12109375 107.04296875 C173 105 173 105 172.59765625 102.86328125 C172.17838673 100.84938985 172.17838673 100.84938985 170.28125 99.9765625 C169.5284375 99.65429688 168.775625 99.33203125 168 99 C166.15794896 97.80499853 164.32622394 96.59405155 162.5 95.375 C155.45896674 90.77332663 148.18497501 86.594001 140.875 82.4375 C140.27918121 82.09868805 139.68336243 81.7598761 139.06948853 81.41079712 C135.97529716 79.65257502 132.87943683 77.89731524 129.78271484 76.14355469 C123.57736993 72.62872169 117.38147144 69.09732783 111.1875 65.5625 C110.59430969 65.22418152 110.00111938 64.88586304 109.38995361 64.53729248 C102.21284079 60.44197546 95.07445353 56.29696713 88.01220703 52.00683594 C83.26727822 49.13270203 78.44406439 46.41866486 73.59936523 43.71826172 C67.45901619 40.28399014 61.38465072 36.740672 55.3125 33.1875 C52.21446381 31.37860411 49.11607399 29.57031541 46.01757812 27.76220703 C44.05968037 26.61883276 42.10259892 25.47405908 40.14648438 24.32763672 C26.18826673 16.15896328 12.21790897 8.55681693 -3 3 C-2.01 2.01 -1.02 1.02 0 0 Z " fill="#545859" transform="translate(470,132)"/>
<path d="M0 0 C1.12148437 0.57814453 1.12148437 0.57814453 2.265625 1.16796875 C6.90921089 3.74866666 8.99824471 5.94293401 11 11 C11.474375 11.78375 11.94875 12.5675 12.4375 13.375 C13.2109375 14.674375 13.2109375 14.674375 14 16 C14.68129471 17.10820602 15.36258942 18.21641205 16.06452942 19.35820007 C18.85525526 25.02300304 18.56431255 30.69253094 18.5300293 36.89379883 C18.53876068 38.17188919 18.54749207 39.44997955 18.55648804 40.76679993 C18.58003383 44.26507433 18.57936754 47.76297449 18.57457328 51.26130891 C18.573974 54.97283396 18.59678395 58.68421695 18.61714172 62.39567566 C18.65256821 69.46634177 18.66855792 76.53690572 18.6769169 83.60765046 C18.68775142 92.25736897 18.71869162 100.90698344 18.75195312 109.55664062 C18.75483534 110.32117042 18.75771756 111.08570022 18.76068711 111.87339759 C18.78084824 117.21377976 18.80208785 122.55415689 18.82421875 127.89453125 C18.82732103 128.64329859 18.83042331 129.39206594 18.83361959 130.1635232 C18.87811455 140.77575482 18.93255639 151.38788908 19 162 C19.00739449 163.20549248 19.01478897 164.41098495 19.02240753 165.65300751 C19.06420769 171.96759701 19.1266415 178.28118501 19.22889137 184.5950985 C19.25545763 186.37912207 19.27568256 188.16325433 19.28876305 189.94742775 C19.36116932 201.80712867 19.36116932 201.80712867 23.06523132 212.99446106 C24.0787589 215.16897661 24.49839785 217.13796094 24.875 219.5 C26.12047558 225.81714189 29.7762138 231.14965048 33.69140625 236.16796875 C35 238 35 238 35 240 C35.58910156 240.268125 36.17820312 240.53625 36.78515625 240.8125 C39.00925927 242.0049644 40.59022123 243.29350691 42.4375 245 C44.58919188 246.90801737 45.98155076 247.99270612 48.6875 249.0625 C51.83149667 250.33709325 53.12859571 252.2275492 55 255 C55 255.66 55 256.32 55 257 C55.66386719 257.18175781 56.32773437 257.36351562 57.01171875 257.55078125 C57.89472656 257.80214844 58.77773438 258.05351562 59.6875 258.3125 C60.55761719 258.55613281 61.42773438 258.79976563 62.32421875 259.05078125 C65 260 65 260 67.3125 261.46875 C70.8459188 263.48197699 74.37241892 264.28258415 78.3125 265.1875 C79.42334961 265.45336914 79.42334961 265.45336914 80.55664062 265.72460938 C82.36930342 266.15730953 84.18442027 266.57970716 86 267 C86 267.66 86 268.32 86 269 C96.89 268.505 96.89 268.505 108 268 C108 268.33 108 268.66 108 269 C95.71877515 272.17264975 80.96377434 270.72896863 69 267 C69 266.67 69 266.34 69 266 C68.41734375 265.86464844 67.8346875 265.72929687 67.234375 265.58984375 C49.5153655 260.93721075 34.91447217 247.75099011 25.3125 232.4375 C19.03609729 221.23476748 15.88199745 208.70471387 15.86869812 195.88795471 C15.86658241 195.20722599 15.86446669 194.52649728 15.86228687 193.82514042 C15.85633438 191.56252822 15.85728362 189.29997255 15.8581543 187.03735352 C15.85511948 185.40712897 15.85159713 183.77690527 15.84762573 182.14668274 C15.83975855 178.64312713 15.83459994 175.1395816 15.83133507 171.63601875 C15.82539863 166.08201652 15.80883156 160.52807749 15.78999329 154.97410583 C15.78365628 153.06794456 15.77733065 151.16178326 15.77101612 149.25562191 C15.76785031 148.30112365 15.7646845 147.34662538 15.76142275 146.36320293 C15.71946092 133.44209773 15.68640262 120.52102231 15.67407227 107.59985352 C15.66565874 98.87257706 15.6430464 90.14545783 15.6047166 81.41826004 C15.58506524 76.80898976 15.57251471 72.19995392 15.57755089 67.59063911 C15.58224021 63.24595268 15.56816158 58.90170905 15.54053879 54.55711174 C15.53369813 52.9754723 15.53342217 51.39378636 15.54073906 49.81214905 C15.60617359 34.05855337 13.83295478 18.96553394 2.26171875 7.23828125 C-5.32128484 0.79191632 -16.03473504 -2.79665405 -25.93359375 -2.2421875 C-28.32998925 -1.96132451 -30.66650999 -1.622264 -33 -1 C-33.33 -1.66 -33.66 -2.32 -34 -3 C-23.18222128 -5.69895899 -9.7489843 -5.62582365 0 0 Z " fill="#292C2C" transform="translate(211,244)"/>
<path d="M0 0 C8.16824967 3.91880044 15.93512768 8.08131223 23.609375 12.91015625 C27.23175615 15.14284509 30.90847714 17.24217923 34.625 19.3125 C46.52019954 25.94867862 58.29336011 32.79070445 70.00488281 39.74560547 C78.75614707 44.94001473 87.53663935 50.07999433 96.375 55.125 C97.31956055 55.66946777 98.26412109 56.21393555 99.23730469 56.77490234 C107.52899876 61.47967318 114.24374243 64.56243377 123.875 64.4375 C124.66003906 64.43355225 125.44507813 64.42960449 126.25390625 64.42553711 C132.45454843 64.27244274 137.5396082 63.03490526 143 60 C143.66 59.67 144.32 59.34 145 59 C146.175625 57.824375 146.175625 57.824375 147.375 56.625 C149.50178849 54.49821151 151.55076195 52.72353789 154 51 C154.66 51.33 155.32 51.66 156 52 C155.79761719 51.41734375 155.59523438 50.8346875 155.38671875 50.234375 C154.91078213 47.48451894 155.42395249 46.62475969 156.8125 44.25 C161.61613373 35.25773062 162.10724867 26.13086952 159.7109375 16.28515625 C158.49189618 12.36680914 156.79427252 8.68435571 155 5 C158 6 158 6 159.1328125 8.07421875 C163.18179962 18.73867694 164.52326226 28.89578228 161.33984375 40.02734375 C160.84777168 42.02725013 160.84777168 42.02725013 161.5859375 44.03515625 C162 46 162 46 161.07421875 47.78125 C160.38779297 48.63203125 160.38779297 48.63203125 159.6875 49.5 C157.67053283 52.03898368 157.67053283 52.03898368 156.25 54.9296875 C154.336746 58.09851443 151.38388602 59.70738126 148.3125 61.625 C147.71244141 62.01945312 147.11238281 62.41390625 146.49414062 62.8203125 C138.61456445 67.83074118 131.21506496 68.34059259 122.0625 68.3125 C121.01642578 68.32861328 119.97035156 68.34472656 118.89257812 68.36132812 C109.1554508 68.36744826 102.97909564 66.1600584 95.375 60.25 C90.65265191 56.71563972 85.95799338 53.77209896 80.625 51.25 C76.84315122 49.45309948 73.43399797 47.77136583 70.1875 45.125 C65.67277546 41.47624633 60.54210385 39.03751118 55.40869141 36.38500977 C50.42240666 33.79424598 45.70673771 30.97447889 41.01171875 27.8828125 C36.28781167 24.9296047 31.38336242 22.3096309 26.49707031 19.63671875 C21.76205278 17.02955111 17.24243816 14.26963855 12.81640625 11.16015625 C10.99779748 9.99859323 9.26802084 9.24979543 7.25 8.5 C3.16846932 6.61621661 1.63098495 4.58770674 -1 1 C-0.67 0.67 -0.34 0.34 0 0 Z " fill="#404343" transform="translate(489,232)"/>
<path d="M0 0 C-3.10567212 2.07044808 -6.32313848 3.77558568 -9.625 5.5 C-16.84385259 9.30805755 -23.86976651 13.40098669 -30.88671875 17.56640625 C-35.65609162 20.39708155 -40.47282715 23.13946334 -45.29296875 25.8828125 C-52.06246923 29.74107702 -58.79491318 33.66405437 -65.53564453 37.57226562 C-67.96935489 38.98224563 -70.40436562 40.38995103 -72.83984375 41.796875 C-73.63229492 42.25497559 -74.42474609 42.71307617 -75.24121094 43.18505859 C-76.82075058 44.09777497 -78.40082265 45.00957061 -79.98144531 45.92041016 C-83.95465744 48.21506852 -87.90695411 50.5378769 -91.83203125 52.9140625 C-92.60659668 53.37997803 -93.38116211 53.84589355 -94.17919922 54.32592773 C-95.64757237 55.21123769 -97.111714 56.10361766 -98.57080078 57.00415039 C-102.0746714 59.11069015 -103.8135568 60 -108 60 C-108.33 60.99 -108.66 61.98 -109 63 C-111.21484375 64.60546875 -111.21484375 64.60546875 -113.9375 66.1875 C-114.83339844 66.71730469 -115.72929687 67.24710937 -116.65234375 67.79296875 C-119 69 -119 69 -121 69 C-121 68.34 -121 67.68 -121 67 C-116.61538462 64 -116.61538462 64 -114 64 C-113.773125 63.42121094 -113.54625 62.84242188 -113.3125 62.24609375 C-109.33716663 55.4430679 -100.19077849 51.35131474 -93.2734375 48.078125 C-88.66741994 45.89382801 -84.35866162 43.23619614 -80.0625 40.5 C-77.37636709 38.79774136 -74.67977077 37.31184971 -71.8125 35.9375 C-69.41952627 34.78035603 -67.7101027 33.76350483 -65.625 32.0625 C-61.21991135 28.60135892 -55.70565834 25 -50 25 C-50 24.34 -50 23.68 -50 23 C-49.38253906 22.70867187 -48.76507813 22.41734375 -48.12890625 22.1171875 C-43.72094994 19.98365614 -39.53351507 17.78521792 -35.5 15 C-31.69165277 12.3742448 -27.78416453 10.35972726 -23.62109375 8.359375 C-19.75444895 6.35402122 -16.16519991 3.96381855 -12.54296875 1.55078125 C-7.70856792 -1.39738638 -5.22526751 -2.68728044 0 0 Z " fill="#404546" transform="translate(486,421)"/>
<path d="M0 0 C0.66 0.33 1.32 0.66 2 1 C1.11699219 1.73863281 0.23398437 2.47726563 -0.67578125 3.23828125 C-29.89716 27.85071302 -48.59668343 56.59009783 -56.09863281 94.32763672 C-56.43266113 95.99656982 -56.43266113 95.99656982 -56.7734375 97.69921875 C-56.96341309 98.69783936 -57.15338867 99.69645996 -57.34912109 100.7253418 C-57.56391113 101.475979 -57.77870117 102.22661621 -58 103 C-58.99 103.495 -58.99 103.495 -60 104 C-61.02073577 97.34186736 -60.84809598 91.94207925 -59.4375 85.375 C-59.25622559 84.50544678 -59.07495117 83.63589355 -58.88818359 82.73999023 C-57.11598105 74.72088422 -54.40122769 67.46936277 -51 60 C-50.71769531 59.37351563 -50.43539063 58.74703125 -50.14453125 58.1015625 C-48.46732898 54.38287872 -46.7519277 50.68401819 -45 47 C-44.34 47 -43.68 47 -43 47 C-42.896875 46.27039063 -42.79375 45.54078125 -42.6875 44.7890625 C-41.45325523 39.78195587 -38.07395153 36.05784889 -35 32 C-34.360625 31.15308594 -33.72125 30.30617187 -33.0625 29.43359375 C-28.47082119 23.59833526 -23.47293704 18.27047591 -18.25 13 C-17.29287109 12.02897339 -17.29287109 12.02897339 -16.31640625 11.03833008 C-11.93067415 6.68190515 -7.56919451 3.68857666 -2 1 C-1.34 0.67 -0.68 0.34 0 0 Z " fill="#4F5355" transform="translate(324,157)"/>
<path d="M0 0 C13.82227739 6.7364189 13.82227739 6.7364189 19.7109375 10.5703125 C24.94999546 13.84248863 30.40803972 16.76152217 35.80078125 19.77099609 C39.53855603 21.85980141 43.26887258 23.96185175 47 26.0625 C48.3541334 26.82427789 49.70829691 27.58600225 51.0625 28.34765625 C52.5165625 29.16556641 52.5165625 29.16556641 54 30 C54 30.66 54 31.32 54 32 C54.72936768 32.10973145 55.45873535 32.21946289 56.21020508 32.33251953 C59.16612583 33.03974692 61.07968337 34.05784067 63.63671875 35.6796875 C67.18656501 37.88394792 70.75204817 40.0221978 74.39453125 42.0703125 C75.28720703 42.57433594 76.17988281 43.07835937 77.09960938 43.59765625 C78.92637505 44.62611612 80.75452993 45.65211189 82.58398438 46.67578125 C87.00749265 49.17868266 91.15802387 51.63323685 95 55 C92.50653347 55.92101016 91.40870668 56.17516001 88.921875 55.109375 C87.84679687 54.43648438 87.84679687 54.43648438 86.75 53.75 C83.87691136 52.03639122 81.51415703 50.83530747 78.3125 49.75 C73.61206103 48.11182721 69.67279167 45.28113893 65.5625 42.54223633 C61.4292927 39.82351173 57.27824251 37.56987979 52.8125 35.4375 C47.26533016 32.76595332 42.59408386 29.6294701 37.7109375 25.90625 C34.00488783 23.30026695 30.06217375 21.44316616 25.98046875 19.5 C22.00111205 17.49728313 18.33746296 15.11287472 14.62109375 12.6640625 C11.41423127 10.62811106 8.08983469 8.90694758 4.6796875 7.23828125 C3 6 3 6 2.2578125 3.85546875 C2.17273438 3.24316406 2.08765625 2.63085938 2 2 C1.34 2 0.68 2 0 2 C0 1.34 0 0.68 0 0 Z " fill="#3D4041" transform="translate(430,332)"/>
<path d="M0 0 C1.12148437 0.57814453 1.12148437 0.57814453 2.265625 1.16796875 C6.90921089 3.74866666 8.99824471 5.94293401 11 11 C11.474375 11.78375 11.94875 12.5675 12.4375 13.375 C13.2109375 14.674375 13.2109375 14.674375 14 16 C14.68318802 17.02454788 15.36637604 18.04909576 16.07026672 19.10469055 C19.37405257 25.82966587 18.51245956 33.6374236 18.43823242 40.94995117 C18.43546414 42.67385673 18.43447892 44.39776593 18.43513489 46.12167358 C18.43201892 50.78946146 18.4044098 55.45682189 18.37264419 60.1244905 C18.34381559 65.02309215 18.338621 69.92171631 18.33113098 74.82038879 C18.31354902 84.10496433 18.27643725 93.38934783 18.2315343 102.67382747 C18.16646107 116.26896927 18.12635544 129.8641896 18.09147358 143.45943928 C18.08890417 144.46019385 18.08633476 145.46094842 18.08368748 146.49202889 C18.0785879 148.48914548 18.07355575 150.48626225 18.06859285 152.48337919 C18.05341733 158.30205725 18.03112008 164.1206517 18.00253522 169.93927896 C17.98540044 173.57380747 17.97234552 177.20834389 17.96006584 180.84289169 C17.95345533 182.51611853 17.94505239 184.1893395 17.93462753 185.86254692 C17.87659935 195.29774683 18.08295871 204.59628727 19 214 C15.6900804 208.48346733 15.87519116 202.14539173 15.86869812 195.88795471 C15.86658241 195.20722599 15.86446669 194.52649728 15.86228687 193.82514042 C15.85633438 191.56252822 15.85728362 189.29997255 15.8581543 187.03735352 C15.85511948 185.40712897 15.85159713 183.77690527 15.84762573 182.14668274 C15.83975855 178.64312713 15.83459994 175.1395816 15.83133507 171.63601875 C15.82539863 166.08201652 15.80883156 160.52807749 15.78999329 154.97410583 C15.78365628 153.06794456 15.77733065 151.16178326 15.77101612 149.25562191 C15.76785031 148.30112365 15.7646845 147.34662538 15.76142275 146.36320293 C15.71946092 133.44209773 15.68640262 120.52102231 15.67407227 107.59985352 C15.66565874 98.87257706 15.6430464 90.14545783 15.6047166 81.41826004 C15.58506524 76.80898976 15.57251471 72.19995392 15.57755089 67.59063911 C15.58224021 63.24595268 15.56816158 58.90170905 15.54053879 54.55711174 C15.53369813 52.9754723 15.53342217 51.39378636 15.54073906 49.81214905 C15.60617359 34.05855337 13.83295478 18.96553394 2.26171875 7.23828125 C-5.32128484 0.79191632 -16.03473504 -2.79665405 -25.93359375 -2.2421875 C-28.32998925 -1.96132451 -30.66650999 -1.622264 -33 -1 C-33.33 -1.66 -33.66 -2.32 -34 -3 C-23.18222128 -5.69895899 -9.7489843 -5.62582365 0 0 Z " fill="#A8AAAC" transform="translate(211,244)"/>
<path d="M0 0 C2.86152669 1.61738465 5.34929096 3.47836821 7.91015625 5.53125 C12.21908991 8.91861982 15.58546869 10.69650172 21 12 C25.50462459 13.80184983 27.54681426 15.67595006 30.484375 19.46875 C32.95093 21.96073341 35.96969009 23.12920808 39.12109375 24.58984375 C47.85169287 28.86629732 55.97844005 34.5279281 64 40 C63.67 40.99 63.34 41.98 63 43 C59.33333333 41 55.66666667 39 52 37 C51.2073877 36.57195068 50.41477539 36.14390137 49.59814453 35.70288086 C42.49644758 31.85575425 35.48808418 27.86176836 28.5 23.8125 C27.37303711 23.16120117 26.24607422 22.50990234 25.08496094 21.83886719 C19.81819629 18.79408887 14.55522562 15.742879 9.296875 12.68359375 C8.43771484 12.18432373 7.57855469 11.68505371 6.69335938 11.1706543 C5.1155412 10.25325582 3.53864963 9.33426097 1.96289062 8.41333008 C-1.96258221 6.13050421 -5.90985404 3.98076251 -10 2 C-6.57286781 -0.10900443 -3.99128926 -0.47895471 0 0 Z " fill="#464A4B" transform="translate(440,240)"/>
<path d="M0 0 C0 3.69913551 -0.78307978 4.18491901 -3.25 6.8125 C-5.50210082 9.2726262 -7.31169338 11.48587497 -9.125 14.3125 C-11.17876462 17.25622929 -12.93177125 18.23576847 -16 20 C-16.598125 20.763125 -17.19625 21.52625 -17.8125 22.3125 C-20.7528603 25.92494265 -24.2158202 28.32275715 -28 31 C-28.88171875 31.639375 -29.7634375 32.27875 -30.671875 32.9375 C-37.73487903 38 -37.73487903 38 -40 38 C-40.2165625 38.60328125 -40.433125 39.2065625 -40.65625 39.828125 C-42.46982211 42.75936364 -44.35670898 43.40996541 -47.5 44.75 C-48.4796875 45.17796875 -49.459375 45.6059375 -50.46875 46.046875 C-53 47 -53 47 -55 47 C-55 47.66 -55 48.32 -55 49 C-55.7321875 49.34289062 -56.464375 49.68578125 -57.21875 50.0390625 C-70.40395289 56.41191056 -83.44575419 63.64287075 -95.64038086 71.75683594 C-96.80839233 72.37220215 -96.80839233 72.37220215 -98 73 C-98.99 72.67 -99.98 72.34 -101 72 C-97.71195019 69.08772731 -95.40114397 67.50298788 -91 67 C-90.67 66.01 -90.34 65.02 -90 64 C-87.86568405 62.64391082 -85.80311181 61.46036423 -83.5625 60.3125 C-82.96373047 59.99216797 -82.36496094 59.67183594 -81.74804688 59.34179688 C-77.28914579 57 -77.28914579 57 -75 57 C-75 56.34 -75 55.68 -75 55 C-74.46632813 54.72325439 -73.93265625 54.44650879 -73.3828125 54.16137695 C-70.92009216 52.88181692 -68.46004721 51.59719132 -66 50.3125 C-65.16082031 49.87744141 -64.32164062 49.44238281 -63.45703125 48.99414062 C-58.74557573 46.52884413 -54.18869849 43.95079869 -49.74023438 41.03515625 C-47.28969194 39.5774823 -44.73811929 38.75298281 -42 38 C-42 37.34 -42 36.68 -42 36 C-39.94147791 34.61445628 -37.87928718 33.33072921 -35.75 32.0625 C-28.32482536 27.48001973 -22.21530572 22.11341546 -16 16 C-15.10152344 15.11699219 -14.20304688 14.23398437 -13.27734375 13.32421875 C-10.97195421 11.06376971 -10.97195421 11.06376971 -9.125 8.5625 C-6.40834544 5.2865342 -3.28667685 2.68658136 0 0 Z " fill="#000000" transform="translate(621,553)"/>
<path d="M0 0 C8.16824967 3.91880044 15.93512768 8.08131223 23.609375 12.91015625 C27.23175143 15.14284218 30.90843762 17.2422554 34.625 19.3125 C49.55324205 27.6373436 64.28108229 36.31188084 79 45 C78.01 45.495 78.01 45.495 77 46 C74.99029266 45.01965496 72.99270131 44.01446612 71 43 C69.61969691 42.54266149 68.23225635 42.10652539 66.83984375 41.6875 C61.92443994 40.07949428 57.60019905 37.81665112 53.125 35.25 C52.33907471 34.8068042 51.55314941 34.3636084 50.7434082 33.90698242 C45.59948882 30.98325424 40.59574875 27.88840471 35.64453125 24.6484375 C31.57385918 22.11103187 27.31940981 19.93544119 23.078125 17.69921875 C19.55615784 15.75498561 16.29070842 13.5612989 12.9921875 11.265625 C11.10172423 10.06462481 9.34391038 9.27285962 7.25 8.5 C3.16846932 6.61621661 1.63098495 4.58770674 -1 1 C-0.67 0.67 -0.34 0.34 0 0 Z " fill="#596063" transform="translate(489,232)"/>
<path d="M0 0 C17.08699362 8.19765811 32.86526376 15.87276769 41 34 C42.1867941 38.0642783 42.18384393 42.04551582 42.1875 46.25 C42.20586914 47.33861328 42.20586914 47.33861328 42.22460938 48.44921875 C42.2384037 53.60829807 41.64208847 58.09010093 40 63 C39.01 63.33 38.02 63.66 37 64 C37.144375 63.40574219 37.28875 62.81148438 37.4375 62.19921875 C40.03931266 50.58140248 40.31825579 37.60222468 34 27 C31.9664052 25.73195434 31.9664052 25.73195434 30 25 C30 24.01 30 23.02 30 22 C29.4740625 21.75636719 28.948125 21.51273438 28.40625 21.26171875 C25.30934836 19.63785637 22.42017375 17.72893921 19.5 15.8125 C13.84789637 12.11102308 8.1088492 8.76512262 2.1328125 5.60546875 C1.07707031 4.81076172 1.07707031 4.81076172 0 4 C0 2.68 0 1.36 0 0 Z " fill="#3C3F40" transform="translate(612,211)"/>
<path d="M0 0 C3.17034699 0.98129788 6.05097677 2.0265504 9 3.5625 C11.87428196 5.14257554 11.87428196 5.14257554 14.8125 5.3125 C18.80376006 6.17336001 21.29678153 8.03889327 24.55859375 10.4296875 C26.99119123 11.9943342 29.45163841 13.045253 32.11938477 14.14257812 C35.52928993 15.69724344 38.61035597 17.77909739 41.75 19.8125 C46.48633331 22.83466377 51.22035495 25.73978465 56.1875 28.375 C59.76525434 30.28780541 63.10398339 32.10398339 66 35 C66 35.99 66 36.98 66 38 C62.34434495 36.61559525 58.97419594 34.97726638 55.5546875 33.0859375 C54.49024414 32.49723877 53.42580078 31.90854004 52.32910156 31.30200195 C51.18924805 30.66609131 50.04939453 30.03018066 48.875 29.375 C48.28940308 29.04930023 47.70380615 28.72360046 47.10046387 28.38803101 C34.48008418 21.36307333 22.06804927 14.00328902 9.67382812 6.58837891 C6.47079301 4.68562631 3.24456394 2.83086108 0 1 C0 0.67 0 0.34 0 0 Z " fill="#626666" transform="translate(546,176)"/>
<path d="M0 0 C0.66 0.66 1.32 1.32 2 2 C-0.64824457 5.51881693 -3.309187 8.21579234 -6.8125 10.875 C-17.86610421 19.55881535 -24.38024369 28.65042971 -29.55273438 41.67944336 C-30.29166572 43.48632085 -31.13867777 45.24815817 -32 47 C-33.485 47.495 -33.485 47.495 -35 48 C-36.83403755 42.49788734 -33.30093188 37.07457997 -31 32 C-26.85553303 24.25477089 -21.5564922 16.88993569 -15 11 C-12.80859375 10.3671875 -12.80859375 10.3671875 -11 10 C-10.5875 9.2575 -10.175 8.515 -9.75 7.75 C-7.29348577 3.88976335 -3.93380631 2.19583013 0 0 Z " fill="#484E50" transform="translate(381,213)"/>
<path d="M0 0 C0.66 0 1.32 0 2 0 C2.72265625 1.66796875 2.72265625 1.66796875 3 4 C1.55859375 6.55078125 1.55859375 6.55078125 -0.5625 9.3125 C-1.30886719 10.28445313 -2.05523438 11.25640625 -2.82421875 12.2578125 C-3.54222656 13.16273438 -4.26023437 14.06765625 -5 15 C-5.50144531 15.65742188 -6.00289062 16.31484375 -6.51953125 16.9921875 C-13.59476253 25.84132403 -23.19609067 31.60953439 -33 37 C-33.66 36.34 -34.32 35.68 -35 35 C-34.34 35 -33.68 35 -33 35 C-32.79375 34.443125 -32.5875 33.88625 -32.375 33.3125 C-29.87901724 29.11471082 -25.88115516 26.5815624 -21.875 23.9375 C-18.9810117 22.12043627 -18.9810117 22.12043627 -16.8125 19.8125 C-15 18 -15 18 -12 17 C-11.71125 16.278125 -11.4225 15.55625 -11.125 14.8125 C-9.95994048 11.8998512 -8.42691712 9.90473548 -6.3671875 7.55859375 C-4.95977019 5.95413802 -3.64078865 4.29518543 -2.3125 2.625 C-1.549375 1.75875 -0.78625 0.8925 0 0 Z " fill="#44494B" transform="translate(562,493)"/>
<path d="M0 0 C2.84110455 3.4852059 4.82806382 7.33430699 6.875 11.3125 C9.04143811 15.47150158 11.17160419 19.49227414 14 23.25 C16 26 16 26 16 29 C16.99 29.33 17.98 29.66 19 30 C20.83203125 32.0390625 20.83203125 32.0390625 22.8125 34.625 C23.52019531 35.53121094 24.22789062 36.43742188 24.95703125 37.37109375 C25.63121094 38.23863281 26.30539063 39.10617187 27 40 C30.72099057 44.66277974 34.66891321 48.60909855 39.265625 52.421875 C41 54 41 54 43 57 C36.7052634 55.76024883 33.55308563 53.28704447 29.1875 48.6875 C28.58292969 48.06593018 27.97835937 47.44436035 27.35546875 46.80395508 C21.71776356 40.90571505 16.739313 34.63153408 12 28 C11.41605469 27.19949219 10.83210937 26.39898438 10.23046875 25.57421875 C4.74264787 17.75233734 0.54574604 9.64151335 0 0 Z " fill="#4F5151" transform="translate(162,499)"/>
<path d="M0 0 C-3.10567212 2.07044808 -6.32313848 3.77558568 -9.625 5.5 C-15.358758 8.52464694 -20.98587046 11.694954 -26.5625 15 C-27.26938965 15.41894531 -27.9762793 15.83789062 -28.70458984 16.26953125 C-30.11385608 17.10532284 -31.5230369 17.94125847 -32.93212891 18.77734375 C-36.19302639 20.7053927 -39.46729571 22.60935912 -42.75 24.5 C-44.38195312 25.44359375 -44.38195312 25.44359375 -46.046875 26.40625 C-48.65817156 27.81552116 -51.22089726 28.97070269 -54 30 C-54 29.34 -54 28.68 -54 28 C-53.113125 27.608125 -52.22625 27.21625 -51.3125 26.8125 C-47.97976163 25.1904357 -47.97976163 25.1904357 -45.75 22.75 C-39.44653577 16.44653577 -32.00919095 12.37135185 -24.03125 8.546875 C-19.98449571 6.48177874 -16.24433773 4.04145694 -12.47265625 1.515625 C-7.67160656 -1.4271985 -5.19076169 -2.66953458 0 0 Z " fill="#383835" transform="translate(486,421)"/>
<path d="M0 0 C1.34061543 0.30271961 2.67405895 0.63837971 4 1 C6.18703385 0.62092718 6.18703385 0.62092718 8 0 C5.77519237 2.41959425 3.53385756 3.99021285 0.67578125 5.6015625 C-0.18088135 6.08786133 -1.03754395 6.57416016 -1.92016602 7.07519531 C-2.83338623 7.58663086 -3.74660645 8.09806641 -4.6875 8.625 C-5.62198975 9.1519043 -6.55647949 9.67880859 -7.51928711 10.22167969 C-9.42765444 11.29748537 -11.33691623 12.37170594 -13.24707031 13.44433594 C-15.77747125 14.87425034 -18.29359516 16.32558138 -20.8046875 17.7890625 C-21.89003784 18.41627197 -21.89003784 18.41627197 -22.99731445 19.05615234 C-24.34317887 19.83417303 -25.68566251 20.6180808 -27.02416992 21.40869141 C-30.39279387 23.33812952 -32.00709128 24 -36 24 C-35.38125 23.7525 -34.7625 23.505 -34.125 23.25 C-31.87172319 22.20995253 -31.87172319 22.20995253 -31.2265625 20.15625 C-29.48836886 17.100572 -27.2633244 16.02859635 -24.25 14.25 C-23.6823291 13.91145996 -23.1146582 13.57291992 -22.52978516 13.22412109 C-20.69421265 12.13561306 -18.84916104 11.06524646 -17 10 C-16.36223633 9.63229492 -15.72447266 9.26458984 -15.06738281 8.88574219 C-12.01801661 7.13247207 -8.96218847 5.39215575 -5.8984375 3.6640625 C-3.89112508 2.51161628 -1.92587481 1.28391654 0 0 Z " fill="#4D5152" transform="translate(493,545)"/>
<path d="M0 0 C3 1 3 1 4.1328125 3.07421875 C8.18179962 13.73867694 9.52326226 23.89578228 6.33984375 35.02734375 C5.84777168 37.02725013 5.84777168 37.02725013 6.5859375 39.03515625 C7 41 7 41 6.07421875 42.78125 C5.61660156 43.3484375 5.15898438 43.915625 4.6875 44.5 C3.24293549 46.32122746 2.06578023 47.84780847 1.140625 49.98828125 C-1.38809413 54.44817972 -6.50350255 56.85343086 -11 59 C-14.69667363 59.78303924 -18.2263396 60.05109405 -22 60 C-18.78447861 57.85631908 -15.5589943 56.48830671 -12 55 C-9.76282918 54.01317616 -9.76282918 54.01317616 -7.625 51.625 C-5.49821151 49.49821151 -3.44923805 47.72353789 -1 46 C-0.34 46.33 0.32 46.66 1 47 C0.79761719 46.41734375 0.59523438 45.8346875 0.38671875 45.234375 C-0.08921787 42.48451894 0.42395249 41.62475969 1.8125 39.25 C6.61613373 30.25773062 7.10724867 21.13086952 4.7109375 11.28515625 C3.49189618 7.36680914 1.79427252 3.68435571 0 0 Z " fill="#7B878C" transform="translate(644,237)"/>
<path d="M0 0 C13.9356093 6.79165228 13.9356093 6.79165228 19.66796875 10.55078125 C23.77334702 13.10202972 28.03568346 15.38937564 32.27880859 17.70263672 C36.15663297 19.84695609 39.61663602 22.10278929 43 25 C39.42264999 24.38674 36.35563057 23.35823142 33 22 C31.93265625 21.73703125 30.8653125 21.4740625 29.765625 21.203125 C25.73866888 19.91650416 22.57536024 18.05159082 19.125 15.6875 C14.40117114 12.52756055 9.70432292 9.64293582 4.57421875 7.16796875 C3 6 3 6 2.26953125 3.86328125 C2.18058594 3.24839844 2.09164063 2.63351562 2 2 C1.34 2 0.68 2 0 2 C0 1.34 0 0.68 0 0 Z " fill="#5F6668" transform="translate(430,332)"/>
<path d="M0 0 C0.81339844 0.3609375 1.62679688 0.721875 2.46484375 1.09375 C12.93398787 5.33322343 24.75266764 7.65043864 35.75 3.625 C36.8225 3.08875 37.895 2.5525 39 2 C39.99 1.608125 40.98 1.21625 42 0.8125 C42.66 0.544375 43.32 0.27625 44 0 C42.72598185 3.82205444 40.36633714 5.9295537 37 8 C31.8717785 9.23350705 26.87227637 9.22084846 21.625 9.25 C20.24441406 9.2809375 20.24441406 9.2809375 18.8359375 9.3125 C10.82818715 9.35825857 5.7760207 7.31201317 -1 3 C-0.67 2.01 -0.34 1.02 0 0 Z " fill="#5F6363" transform="translate(281,470)"/>
<path d="M0 0 C2.35131378 2.88722575 3.79109076 5.56741145 5.0625 9.0625 C5.38347656 9.91972656 5.70445312 10.77695312 6.03515625 11.66015625 C8.61898027 20.60416247 9.41541568 29.40242348 9.4375 38.6875 C9.44136719 39.81784668 9.44523438 40.94819336 9.44921875 42.11279297 C9.32118035 51.46093006 7.62813604 59.4220498 4 68 C2.81155833 64.43467498 3.30865986 63.22403174 4.375 59.6875 C6.62624496 52.1447774 7.23899699 44.95271212 7.5625 37.125 C7.60568359 36.15046875 7.64886719 35.1759375 7.69335938 34.171875 C7.79882274 31.78137198 7.90094175 29.39077556 8 27 C7.01 26.67 6.02 26.34 5 26 C4.1836076 23.61985598 3.55530869 21.37899362 3 18.9375 C1.94731894 14.59326498 0.87452251 10.37608628 -0.875 6.25 C-1.24625 5.1775 -1.6175 4.105 -2 3 C-1.34 2.01 -0.68 1.02 0 0 Z " fill="#7A7F81" transform="translate(564,422)"/>
<path d="M0 0 C0.78503906 0.19980469 1.57007813 0.39960937 2.37890625 0.60546875 C21.03763855 4.73704519 47.59177737 5.90951171 65.94140625 -0.20703125 C66.93140625 0.78296875 66.93140625 0.78296875 67.94140625 1.79296875 C67.04832764 1.92143188 67.04832764 1.92143188 66.13720703 2.05249023 C63.44640996 2.44158128 60.75641393 2.83595876 58.06640625 3.23046875 C57.12925781 3.36517578 56.19210937 3.49988281 55.2265625 3.63867188 C54.33066406 3.77080078 53.43476563 3.90292969 52.51171875 4.0390625 C51.68430176 4.15950928 50.85688477 4.27995605 50.00439453 4.40405273 C47.88812858 4.70553547 47.88812858 4.70553547 45.94140625 5.79296875 C41.61376024 6.04325543 37.27545111 5.98326834 32.94140625 5.98046875 C31.67804443 5.97966309 30.41468262 5.97885742 29.11303711 5.97802734 C21.87018322 5.93095687 14.70429096 5.72392441 7.50390625 4.91796875 C6.79685547 4.83957764 6.08980469 4.76118652 5.36132812 4.68041992 C1.61931933 4.19881637 -1.62805326 3.36612604 -5.05859375 1.79296875 C-2.05859375 -0.20703125 -2.05859375 -0.20703125 0 0 Z " fill="#AFB7BC" transform="translate(273.05859375,588.20703125)"/>
<path d="M0 0 C8.32015376 3.5047223 15.87546879 7.58925612 23.44140625 12.48388672 C27.20219799 14.9133658 30.96864948 17.03320702 35 19 C37.05731119 20.26571203 39.01073191 21.62645775 41 23 C38 24 38 24 35.765625 23.109375 C34.93546875 22.66078125 34.1053125 22.2121875 33.25 21.75 C30.4262933 20.24047126 27.65677835 18.85661865 24.69921875 17.62109375 C20.46987189 15.84074012 16.53833664 13.59324069 12.5625 11.3125 C11.83095703 10.89677734 11.09941406 10.48105469 10.34570312 10.05273438 C8.56193409 9.03843433 6.78069908 8.01968002 5 7 C5 6.01 5 5.02 5 4 C2.525 3.01 2.525 3.01 0 2 C0 1.34 0 0.68 0 0 Z " fill="#303334" transform="translate(520,158)"/>
<path d="M0 0 C1.48288168 3.85549237 0.42952315 6.23809697 -1 10 C-1.26039063 10.89203125 -1.52078125 11.7840625 -1.7890625 12.703125 C-3.2774754 16.75544917 -5.28356312 20.22178202 -7.5625 23.875 C-7.99997559 24.57882812 -8.43745117 25.28265625 -8.88818359 26.0078125 C-12.50166533 31.62098801 -16.59586555 36.03174668 -22 40 C-22.66 39.67 -23.32 39.34 -24 39 C-23.32195313 38.11441406 -22.64390625 37.22882812 -21.9453125 36.31640625 C-16.742347 29.42680649 -11.87533925 22.44796449 -7.5 15 C-7.09152832 14.30720947 -6.68305664 13.61441895 -6.26220703 12.90063477 C-3.84266905 8.70612857 -1.82258612 4.48636584 0 0 Z " fill="#636665" transform="translate(638,519)"/>
<path d="M0 0 C10.17777547 3.36309103 18.87375049 8.20148773 27.97265625 13.76757812 C30.97892918 15.59509086 34.019429 17.35944466 37.0625 19.125 C38.02285156 19.68445313 38.98320313 20.24390625 39.97265625 20.8203125 C40.64167969 21.20960938 41.31070313 21.59890625 42 22 C41.01 22.495 41.01 22.495 40 23 C37.99029266 22.01965496 35.99270131 21.01446612 34 20 C32.62484882 19.54539617 31.24261586 19.11187978 29.85546875 18.6953125 C24.84896719 17.0582094 20.43731613 14.73091985 15.875 12.125 C15.11574219 11.70347656 14.35648438 11.28195312 13.57421875 10.84765625 C8.82125083 8.17257792 4.29905019 5.36397826 0 2 C0 1.34 0 0.68 0 0 Z " fill="#555A5B" transform="translate(526,255)"/>
<path d="M0 0 C0.56589844 0.36867188 1.13179688 0.73734375 1.71484375 1.1171875 C-1.04801748 4.32534504 -4.59358484 6.23360753 -8.22265625 8.3046875 C-9.15368164 8.85672852 -9.15368164 8.85672852 -10.10351562 9.41992188 C-13.5218738 11.38211043 -15.25010868 12.1171875 -19.28515625 12.1171875 C-19.61515625 13.1071875 -19.94515625 14.0971875 -20.28515625 15.1171875 C-22.5 16.72265625 -22.5 16.72265625 -25.22265625 18.3046875 C-26.11855469 18.83449219 -27.01445312 19.36429687 -27.9375 19.91015625 C-30.28515625 21.1171875 -30.28515625 21.1171875 -32.28515625 21.1171875 C-32.28515625 20.4571875 -32.28515625 19.7971875 -32.28515625 19.1171875 C-27.90054087 16.1171875 -27.90054087 16.1171875 -25.28515625 16.1171875 C-25.05828125 15.53839844 -24.83140625 14.95960938 -24.59765625 14.36328125 C-21.28282263 8.69057491 -6.80207697 -2.62781093 0 0 Z " fill="#4A4F53" transform="translate(397.28515625,468.8828125)"/>
<path d="M0 0 C1.16670858 3.41399288 0.79911979 5.35718888 -0.3125 8.75 C-1.95325172 14.28380809 -2.70085274 19.70530548 -3.26489258 25.42871094 C-3.66989534 29.26838456 -4.36871883 32.49376081 -6 36 C-6.33 36 -6.66 36 -7 36 C-8.0857448 29.11665637 -7.72873193 23.59515583 -6.25 16.8125 C-6.07984375 15.94947266 -5.9096875 15.08644531 -5.734375 14.19726562 C-3.51031099 3.51031099 -3.51031099 3.51031099 0 0 Z " fill="#313233" transform="translate(271,225)"/>
<path d="M0 0 C0.99 0.33 1.98 0.66 3 1 C-0.78574529 3.14438118 -4.57606378 5.28036818 -8.37084961 7.40869141 C-9.66120356 8.1339375 -10.95027836 8.86146434 -12.23803711 9.59130859 C-14.08896871 10.6398132 -15.94434121 11.68003714 -17.80078125 12.71875 C-18.91622314 13.34716797 -20.03166504 13.97558594 -21.1809082 14.62304688 C-24 16 -24 16 -27 16 C-26.34 15.67 -25.68 15.34 -25 15 C-24.70738281 14.37351562 -24.41476562 13.74703125 -24.11328125 13.1015625 C-21.58461282 8.3281463 -14.96354006 5.60979678 -10 4 C-9.175 3.855625 -8.35 3.71125 -7.5 3.5625 C-4.86113858 3.1118483 -4.86113858 3.1118483 -2.375 1.375 C-1.59125 0.92125 -0.8075 0.4675 0 0 Z " fill="#687074" transform="translate(452,572)"/>
<path d="M0 0 C0.99 0 1.98 0 3 0 C2.67 0.99 2.34 1.98 2 3 C-1.0625 4.1875 -1.0625 4.1875 -4 5 C-4 5.99 -4 6.98 -4 8 C-8.62 10.64 -13.24 13.28 -18 16 C-18.33 15.34 -18.66 14.68 -19 14 C-14.53393347 8.0060686 -10.04074353 4.62967529 -3 2 C-2.01 2 -1.02 2 0 2 C0 1.34 0 0.68 0 0 Z " fill="#35393C" transform="translate(436,444)"/>
<path d="M0 0 C0.55945313 0.37253906 1.11890625 0.74507812 1.6953125 1.12890625 C1.0353125 1.78890625 0.3753125 2.44890625 -0.3046875 3.12890625 C-1.6246875 3.12890625 -2.9446875 3.12890625 -4.3046875 3.12890625 C-4.6346875 4.11890625 -4.9646875 5.10890625 -5.3046875 6.12890625 C-7.23046875 7.4453125 -7.23046875 7.4453125 -9.6171875 8.69140625 C-10.39707031 9.10519531 -11.17695313 9.51898437 -11.98046875 9.9453125 C-14.08376419 11.01640244 -16.19066728 12.0791525 -18.3046875 13.12890625 C-18.3046875 9.12890625 -18.3046875 9.12890625 -15.9296875 6.69140625 C-4.77729424 -1.80565528 -4.77729424 -1.80565528 0 0 Z " fill="#434B4F" transform="translate(410.3046875,595.87109375)"/>
<path d="M0 0 C2.2922454 0.30822621 4.58378455 0.62170874 6.875 0.9375 C8.15117187 1.11152344 9.42734375 1.28554688 10.7421875 1.46484375 C14 2 14 2 16 3 C16 3.66 16 4.32 16 5 C23.26 4.67 30.52 4.34 38 4 C38 4.33 38 4.66 38 5 C25.71877515 8.17264975 10.96377434 6.72896863 -1 3 C-0.67 2.01 -0.34 1.02 0 0 Z " fill="#7C8181" transform="translate(281,508)"/>
<path d="M0 0 C8.72589333 1.89116319 18.36818057 4.57277327 23.625 12.375 C24.07875 13.24125 24.5325 14.1075 25 15 C21.77475932 15 21.03634591 14.62456063 18.41796875 12.953125 C17.73283203 12.52 17.04769531 12.086875 16.34179688 11.640625 C15.27541992 10.95226562 15.27541992 10.95226562 14.1875 10.25 C13.48818359 9.8065625 12.78886719 9.363125 12.06835938 8.90625 C10.03838216 7.61496421 8.01800089 6.30990376 6 5 C5.38979004 4.60876953 4.77958008 4.21753906 4.15087891 3.81445312 C2.74902557 2.90376309 1.37142122 1.95590427 0 1 C0 0.67 0 0.34 0 0 Z " fill="#717677" transform="translate(565,318)"/>
<path d="M0 0 C0.70898438 0.23976562 1.41796875 0.47953125 2.1484375 0.7265625 C1.4678125 1.2628125 0.7871875 1.7990625 0.0859375 2.3515625 C-7.05682341 7.88458626 -7.05682341 7.88458626 -12.8515625 14.7265625 C-14.1715625 14.0665625 -15.4915625 13.4065625 -16.8515625 12.7265625 C-14.67063073 8.55498159 -12.25545344 6.13655336 -8.4765625 3.3515625 C-7.54070312 2.64257812 -6.60484375 1.93359375 -5.640625 1.203125 C-2.8515625 -0.2734375 -2.8515625 -0.2734375 0 0 Z " fill="#222324" transform="translate(169.8515625,244.2734375)"/>
<path d="M0 0 C1.155 0.391875 2.31 0.78375 3.5 1.1875 C10.63136502 3.56843728 17.82002646 5.77112478 25 8 C20.42942214 10.62782665 17.02290159 10.1818592 12 9 C8.15317175 7.65586705 4.40545657 6.25611498 1 4 C0.1875 1.83203125 0.1875 1.83203125 0 0 Z " fill="#666B6E" transform="translate(240,578)"/>
<path d="M0 0 C3.36977158 4.12797018 5.60669166 8.80242934 8.0390625 13.51171875 C9.81783741 16.91311657 11.68300664 19.92998379 14 23 C14 23.66 14 24.32 14 25 C8.9022005 23.34665962 7.14386497 21.12904347 4.6484375 16.484375 C2.03816909 10.87950419 0.35014851 6.18595695 0 0 Z " fill="#6E7678" transform="translate(162,499)"/>
<path d="M0 0 C0.66 0.33 1.32 0.66 2 1 C1.30777344 1.40089844 0.61554688 1.80179687 -0.09765625 2.21484375 C-4.77536767 4.93272351 -9.44634068 7.65396272 -14.06640625 10.46875 C-14.7411499 10.87875244 -15.41589355 11.28875488 -16.11108398 11.71118164 C-17.44228004 12.5217766 -18.7712684 13.33600952 -20.09790039 14.15405273 C-24.77846613 17 -24.77846613 17 -27 17 C-27 16.34 -27 15.68 -27 15 C-26.113125 14.608125 -25.22625 14.21625 -24.3125 13.8125 C-20.8498067 11.91781876 -18.70341009 9.84569483 -16 7 C-12.7382568 4.05390937 -10.28862119 3.68617939 -6 3 C-4.9275 2.46375 -3.855 1.9275 -2.75 1.375 C-1.8425 0.92125 -0.935 0.4675 0 0 Z " fill="#7E888E" transform="translate(459,434)"/>
<path d="M0 0 C5.94980408 1.23954252 10.69519297 3.61119674 15 8 C15.7265625 10.1953125 15.7265625 10.1953125 16 12 C11.95698825 10.51481201 8.38853744 8.57122002 4.6875 6.375 C3.08455078 5.42753906 3.08455078 5.42753906 1.44921875 4.4609375 C0.64097656 3.97882813 -0.16726563 3.49671875 -1 3 C-0.67 2.01 -0.34 1.02 0 0 Z " fill="#4F5152" transform="translate(505,281)"/>
<path d="M0 0 C1.2126291 4.00769617 0.49206738 6.0735069 -1 10 C-1.268125 10.94875 -1.53625 11.8975 -1.8125 12.875 C-3.33779504 16.88893433 -5.32598367 20.62319733 -8 24 C-8.66 24 -9.32 24 -10 24 C-7.90591324 15.34444139 -4.11688697 7.82772482 0 0 Z " fill="#595D5C" transform="translate(638,519)"/>
<path d="M0 0 C0.99 0.33 1.98 0.66 3 1 C2.32420898 1.34780518 1.64841797 1.69561035 0.95214844 2.05395508 C-2.11720681 3.63634425 -5.18361862 5.22435624 -8.25 6.8125 C-9.31347656 7.35970703 -10.37695312 7.90691406 -11.47265625 8.47070312 C-12.49746094 9.00244141 -13.52226562 9.53417969 -14.578125 10.08203125 C-15.99206543 10.81256714 -15.99206543 10.81256714 -17.43457031 11.55786133 C-20.01344443 12.93031786 -20.01344443 12.93031786 -22.21386719 14.68237305 C-24 16 -24 16 -26 16 C-25 13 -25 13 -23.328125 12.0078125 C-22.64234375 11.71648437 -21.9565625 11.42515625 -21.25 11.125 C-18.28283034 9.75674685 -16.90888765 8.90169457 -14.625 6.4375 C-11.36202954 3.40759886 -8.45486985 2.67351966 -4.20703125 1.578125 C-1.97959045 1.07561684 -1.97959045 1.07561684 0 0 Z " fill="#818A88" transform="translate(356,138)"/>
<path d="M0 0 C0.66 0 1.32 0 2 0 C4.89288848 7.26030749 6.86299135 14.26534904 8 22 C5.0332509 19.47566086 3.84037816 16.76104489 2.375 13.1875 C1.94960937 12.17042969 1.52421875 11.15335937 1.0859375 10.10546875 C0.01525606 7.04362794 -0.6518686 4.2225677 -1 1 C-0.67 0.67 -0.34 0.34 0 0 Z " fill="#383B3A" transform="translate(156,485)"/>
<path d="M0 0 C2.27208206 1.1225346 4.54267645 2.24791521 6.8125 3.375 C7.45509766 3.69210937 8.09769531 4.00921875 8.75976562 4.3359375 C11.63194461 5.76458611 14.3267821 7.21785473 17 9 C16.67 9.99 16.34 10.98 16 12 C10.26318047 10.71214255 6.53374494 8.79354168 2 5 C2 4.01 2 3.02 2 2 C1.34 2 0.68 2 0 2 C0 1.34 0 0.68 0 0 Z " fill="#4F5353" transform="translate(430,332)"/>
<path d="M0 0 C0.66 0.33 1.32 0.66 2 1 C-0.22827893 2.9177069 -2.45758905 4.83419239 -4.6875 6.75 C-5.31333984 7.28882813 -5.93917969 7.82765625 -6.58398438 8.3828125 C-10.0065083 11.32152415 -13.4555823 14.20783921 -17 17 C-17 16.01 -17 15.02 -17 14 C-16.34 14 -15.68 14 -15 14 C-14.814375 13.29875 -14.62875 12.5975 -14.4375 11.875 C-11.8304823 6.6609646 -7.20751832 3.43231823 -2 1 C-1.34 0.67 -0.68 0.34 0 0 Z " fill="#8C9294" transform="translate(324,157)"/>
<path d="M0 0 C1.32 0.66 2.64 1.32 4 2 C3.40461426 2.08564209 2.80922852 2.17128418 2.19580078 2.25952148 C-0.49499629 2.64861253 -3.18499232 3.04299001 -5.875 3.4375 C-6.81214844 3.57220703 -7.74929688 3.70691406 -8.71484375 3.84570312 C-9.61074219 3.97783203 -10.50664062 4.10996094 -11.4296875 4.24609375 C-12.25710449 4.36654053 -13.08452148 4.4869873 -13.93701172 4.61108398 C-16.05327767 4.91256672 -16.05327767 4.91256672 -18 6 C-20.10528933 6.08543895 -22.21331157 6.10714725 -24.3203125 6.09765625 C-25.57714844 6.09443359 -26.83398438 6.09121094 -28.12890625 6.08789062 C-29.44761719 6.07951172 -30.76632812 6.07113281 -32.125 6.0625 C-33.46484211 6.05748489 -34.804686 6.05292201 -36.14453125 6.04882812 C-39.42973206 6.03701086 -42.71484397 6.02053617 -46 6 C-46 5.67 -46 5.34 -46 5 C-45.21761963 4.97494385 -44.43523926 4.9498877 -43.62915039 4.92407227 C-40.10675051 4.80850212 -36.5846444 4.68560051 -33.0625 4.5625 C-31.83080078 4.52318359 -30.59910156 4.48386719 -29.33007812 4.44335938 C-28.16025391 4.40146484 -26.99042969 4.35957031 -25.78515625 4.31640625 C-24.70113525 4.27974854 -23.61711426 4.24309082 -22.50024414 4.20532227 C-20.060737 4.27635735 -20.060737 4.27635735 -19 3 C-17.67331468 2.78678272 -16.33740381 2.63002537 -15 2.5 C-13.7934375 2.37625 -13.7934375 2.37625 -12.5625 2.25 C-10.85416667 2.08333333 -9.14583333 1.91666667 -7.4375 1.75 C-6.2309375 1.62625 -6.2309375 1.62625 -5 1.5 C-4.2575 1.4278125 -3.515 1.355625 -2.75 1.28125 C-0.97616999 1.1714852 -0.97616999 1.1714852 0 0 Z " fill="#767879" transform="translate(337,588)"/>
<path d="M0 0 C-0.8125 1.9375 -0.8125 1.9375 -2 4 C-2.99 4.33 -3.98 4.66 -5 5 C-5.33 5.99 -5.66 6.98 -6 8 C-8.21484375 9.60546875 -8.21484375 9.60546875 -10.9375 11.1875 C-11.83339844 11.71730469 -12.72929687 12.24710937 -13.65234375 12.79296875 C-16 14 -16 14 -18 14 C-18 13.34 -18 12.68 -18 12 C-13.61538462 9 -13.61538462 9 -11 9 C-10.814375 8.443125 -10.62875 7.88625 -10.4375 7.3125 C-8.29564079 3.8669004 -4.25292361 0 0 0 Z " fill="#5B6060" transform="translate(383,476)"/>
<path d="M0 0 C2.29679188 1.09442433 4.58704964 2.19986661 6.875 3.3125 C7.52597656 3.62123047 8.17695312 3.92996094 8.84765625 4.24804688 C12.19676398 5.88807385 13.89005879 6.83508818 16 10 C11.85701333 9.40165275 8.81805623 7.99335715 5.1875 5.9375 C4.21167969 5.38964844 3.23585938 4.84179688 2.23046875 4.27734375 C1.49441406 3.85582031 0.75835938 3.43429688 0 3 C0 2.01 0 1.02 0 0 Z " fill="#020101" transform="translate(612,211)"/>
<path d="M0 0 C-0.33 0.99 -0.66 1.98 -1 3 C-6.13691161 4.99186369 -10.52450293 5.1921227 -16 5 C-15.67 4.34 -15.34 3.68 -15 3 C-12.3828125 2.1484375 -12.3828125 2.1484375 -9.125 1.375 C-7.52011719 0.98441406 -7.52011719 0.98441406 -5.8828125 0.5859375 C-3 0 -3 0 0 0 Z " fill="#030202" transform="translate(631,295)"/>
<path d="M0 0 C-1 3 -1 3 -3.21484375 4.421875 C-4.56255859 5.07929688 -4.56255859 5.07929688 -5.9375 5.75 C-6.83339844 6.19859375 -7.72929687 6.6471875 -8.65234375 7.109375 C-9.42707031 7.40328125 -10.20179688 7.6971875 -11 8 C-11.66 7.67 -12.32 7.34 -13 7 C-5.07894737 0 -5.07894737 0 0 0 Z " fill="#000000" transform="translate(462,431)"/>
<path d="M0 0 C8.57142857 0.71428571 8.57142857 0.71428571 12 4 C10.265625 5.1171875 10.265625 5.1171875 8 6 C5.859375 5.3203125 5.859375 5.3203125 3.75 4.125 C3.04359375 3.73570312 2.3371875 3.34640625 1.609375 2.9453125 C1.07828125 2.63335937 0.5471875 2.32140625 0 2 C0 1.34 0 0.68 0 0 Z " fill="#42494E" transform="translate(444,209)"/>
<path d="M0 0 C-1.95245185 1.19714555 -3.91214997 2.38248074 -5.875 3.5625 C-6.96554687 4.22378906 -8.05609375 4.88507813 -9.1796875 5.56640625 C-10.57574219 6.27603516 -10.57574219 6.27603516 -12 7 C-12.66 6.67 -13.32 6.34 -14 6 C-9.97780608 1.50460679 -6.20919335 -2.06973112 0 0 Z " fill="#8A9293" transform="translate(475,427)"/>
<path d="M0 0 C1.67542976 0.28604898 3.34385343 0.61781233 5 1 C1.11327187 4.18005028 -2.89952133 7.10554447 -7 10 C-6.20097177 5.74154273 -4.16166487 3.92454 -1 1 C-0.67 0.67 -0.34 0.34 0 0 Z " fill="#949290" transform="translate(167,244)"/>
<path d="M0 0 C0 0.99 0 1.98 0 3 C-4.87804878 7.87804878 -4.87804878 7.87804878 -8.875 8.3125 C-9.926875 8.1578125 -9.926875 8.1578125 -11 8 C-10.67 7.34 -10.34 6.68 -10 6 C-9.34 6 -8.68 6 -8 6 C-8 5.34 -8 4.68 -8 4 C-5.36 2.68 -2.72 1.36 0 0 Z " fill="#65696B" transform="translate(324,470)"/>
<path d="M0 0 C1.79623856 0.39649413 3.58698435 0.81793452 5.375 1.25 C6.37273438 1.48203125 7.37046875 1.7140625 8.3984375 1.953125 C11 3 11 3 12.3515625 5.109375 C12.56554687 5.73328125 12.77953125 6.3571875 13 7 C11.57877902 6.5991428 10.16313294 6.17849837 8.75 5.75 C7.56664062 5.40195312 7.56664062 5.40195312 6.359375 5.046875 C3.59456065 3.82010307 2.01037104 2.23169629 0 0 Z " fill="#7D7E7D" transform="translate(565,318)"/>
<path d="M0 0 C0.33 0.66 0.66 1.32 1 2 C0.67 2.66 0.34 3.32 0 4 C-0.66 4 -1.32 4 -2 4 C-2 4.99 -2 5.98 -2 7 C-2.99 7.33 -3.98 7.66 -5 8 C-5 5 -5 5 -2.5 2.3125 C-1.675 1.549375 -0.85 0.78625 0 0 Z " fill="#050302" transform="translate(309,167)"/>
<path d="M0 0 C0 0.66 0 1.32 0 2 C-1.26607607 2.53229326 -2.53810412 3.05044544 -3.8125 3.5625 C-4.52019531 3.85253906 -5.22789062 4.14257812 -5.95703125 4.44140625 C-8 5 -8 5 -11 4 C-10.34 4 -9.68 4 -9 4 C-8.67 3.01 -8.34 2.02 -8 1 C-4.68510482 -0.74468167 -3.63361056 -1.21120352 0 0 Z " fill="#5E5E61" transform="translate(370,133)"/>
<path d="M0 0 C0.66 0.33 1.32 0.66 2 1 C0.21190303 2.17213045 -1.58059125 3.33755526 -3.375 4.5 C-4.37273437 5.1496875 -5.37046875 5.799375 -6.3984375 6.46875 C-9 8 -9 8 -11 8 C-10 5 -10 5 -7.78515625 3.578125 C-6.88667969 3.13984375 -5.98820312 2.7015625 -5.0625 2.25 C-4.16660156 1.80140625 -3.27070313 1.3528125 -2.34765625 0.890625 C-1.18556641 0.44976562 -1.18556641 0.44976562 0 0 Z " fill="#E1F0F6" transform="translate(341,146)"/>
<path d="M0 0 C0.66 0 1.32 0 2 0 C0.43358249 4.30764815 -1.68336156 8.06171464 -4 12 C-4.33 11.34 -4.66 10.68 -5 10 C-4.00390625 7.6171875 -4.00390625 7.6171875 -2.5625 4.875 C-1.85287109 3.50988281 -1.85287109 3.50988281 -1.12890625 2.1171875 C-0.75636719 1.41851562 -0.38382812 0.71984375 0 0 Z " fill="#C3D6E5" transform="translate(284,201)"/>
<path d="M0 0 C0.33 0 0.66 0 1 0 C1.36923077 5.53846154 1.36923077 5.53846154 -0.5 7.875 C-1.2425 8.431875 -1.2425 8.431875 -2 9 C-2.33 8.34 -2.66 7.68 -3 7 C-2.06421005 4.64018187 -1.06652192 2.30368736 0 0 Z " fill="#050402" transform="translate(652,266)"/>
<path d="M0 0 C0.33 0.66 0.66 1.32 1 2 C0.22265625 3.7265625 0.22265625 3.7265625 -0.9375 5.625 C-1.618125 6.73875 -2.29875 7.8525 -3 9 C-3.66 9 -4.32 9 -5 9 C-3.7508258 5.54074837 -2.32472205 2.85306797 0 0 Z " fill="#DCEFF7" transform="translate(629,537)"/>
<path d="M0 0 C2.96404505 2.80804268 5.44499019 5.18315774 7 9 C3.17475764 7.549046 1.80909034 5.61818068 0 2 C0 1.34 0 0.68 0 0 Z " fill="#E4F7FD" transform="translate(179,528)"/>
</svg>
